<?xml version="1.0" encoding="UTF-8"?>
<!-- Created with Inkscape (http://www.inkscape.org/) -->
<svg width="210mm" height="210mm" version="1.1" viewBox="0 0 210 210" xmlns="http://www.w3.org/2000/svg">
 <path d="m180.03 10.62c-6.2442 5.4681-19.368 18.415-25.153 24.8-14.958 16.545-27.587 33.514-38.77 52.141-12.382 20.602-24.13 46.108-31.009 67.345-1.1289 3.4925-1.6581 4.6214-2.0108 4.4803-0.28222-0.0705-14.005-9.0664-30.48-19.967-21.061-13.899-30.127-19.685-30.445-19.473-0.28222 0.17639-3.7394 4.6919-7.7258 10.019-5.9619 7.9375-7.2319 9.8778-7.1614 10.689 0.10583 0.88195 4.7272 4.0217 47.731 32.35l47.625 31.397 0.24695-1.5169c0.10583-0.81139 0.49389-3.7042 0.81139-6.4206 3.175-26.705 14.57-57.856 32.209-88.018 18.027-30.797 42.016-60.007 64.206-78.07 2.3636-1.9403 4.2686-3.6336 4.2333-3.7747-0.0705-0.14111-3.9864-4.6919-8.7489-10.16-7.7964-8.9253-8.7489-9.9131-9.7367-9.9131-0.91723-0.03528-1.905 0.67028-5.8208 4.0922z" stroke-width=".035278"/>
</svg>
