<?xml version="1.0" encoding="UTF-8"?>
<!-- Created with Inkscape (http://www.inkscape.org/) -->
<svg width="210mm" height="210mm" version="1.1" viewBox="0 0 210 210"
    xmlns="http://www.w3.org/2000/svg">
    <path
        d="m19.109 20.154c-5.0447 5.9619-9.1722 10.971-9.1722 11.113 0 0.10583 2.7869 2.5753 6.1736 5.4328 19.897 16.792 38.77 33.867 61.454 55.633l7.3378 7.0556-2.3989 2.5753c-1.3053 1.4111-5.8561 6.2794-10.16 10.795-21.131 22.366-39.405 43.462-57.503 66.393-3.9158 4.9389-4.9742 6.4911-4.6214 6.8086 0.24694 0.21167 4.8331 4.1275 10.231 8.7136 8.3961 7.1261 10.019 8.3256 10.936 8.2903 0.98778 0 1.5169-0.49388 4.6567-4.3039 16.863-20.532 46.426-53.552 65.123-72.672l5.08-5.1858 7.9728 8.3608c22.895 24.095 41.91 45.367 61.489 68.827 3.9864 4.7625 4.2686 5.0447 5.3622 4.9389 1.6933-0.14111 20.602-16.228 20.602-17.533 0-0.91722-0.42333-1.5169-8.255-11.324-17.039-21.378-35.419-42.333-57.079-65.158-4.7978-5.08-8.7489-9.3133-8.7489-9.3839 0-0.49389 19.579-19.226 31.044-29.739 12.771-11.677 35.031-31.221 41.557-36.442 1.0936-0.88194 1.4817-1.4817 1.4817-2.1872 0-0.74083-2.0108-3.3161-8.8547-11.395-4.833-5.7503-8.9253-10.442-9.0311-10.442-0.24694 0-10.301 8.2197-19.156 15.734-18.627 15.769-36.301 31.75-55.633 50.377l-2.8928 2.7869-5.4328-5.2564c-13.123-12.771-31.115-29.139-46.637-42.474-10.019-8.6431-25.188-21.167-25.576-21.167-0.10583 0-4.3039 4.8683-9.3486 10.83z"
        stroke-width=".035278" />
</svg>